<svg width="48" height="48" viewBox="0 0 48 48" fill="none" xmlns="http://www.w3.org/2000/svg">
  <circle cx="24" cy="24" r="24" fill="#FAFAFA"/>
  <path d="M35.8434 24.5259C35.7376 24.5259 35.633 24.5038 35.5364 24.4609L29.0984 21.5779C28.8287 21.4567 28.6552 21.1885 28.6552 20.8929C28.6552 20.5972 28.8287 20.3291 29.0984 20.2079L35.5364 17.3349C35.9147 17.1669 36.3577 17.3363 36.5274 17.7139C36.6952 18.0925 36.5253 18.5355 36.1474 18.7049L31.2424 20.8939L36.1484 23.0909C36.4717 23.235 36.6502 23.5856 36.5766 23.9318C36.503 24.278 36.1974 24.5257 35.8434 24.5259Z" fill="#67BECE"/>
  <path d="M27.0694 34.9849C19.9914 34.9849 13.8034 30.2069 12.0244 23.3649C11.92 22.9642 12.1602 22.5548 12.5609 22.4504C12.9616 22.346 13.371 22.5862 13.4754 22.9869C15.0894 29.1723 20.6769 33.4872 27.0694 33.4849C27.4836 33.4849 27.8194 33.8207 27.8194 34.2349C27.8194 34.6491 27.4836 34.9849 27.0694 34.9849Z" fill="#3F54A3"/>
  <path d="M24.4854 28.757C24.0712 28.757 23.7354 28.4212 23.7354 28.007V13.75C23.7354 13.3358 24.0712 13 24.4854 13C24.8996 13 25.2354 13.3358 25.2354 13.75V28.007C25.2354 28.4212 24.8996 28.757 24.4854 28.757Z" fill="#67BECE"/>
</svg>
